<svg width="680" height="114" viewBox="0 0 680 114" fill="none" xmlns="http://www.w3.org/2000/svg">
<path d="M15.326 50V34.166L0.942 9.4H9.758L18.922 26.684H19.27L28.434 9.4H37.192L22.924 34.166V50H15.326ZM33.5694 29.874V29.526C33.5694 17.578 41.9214 8.704 53.5794 8.704H53.9854C65.6434 8.704 73.9954 17.52 73.9954 29.468V29.932C73.9954 41.822 65.6434 50.696 53.9854 50.696H53.5794C41.9794 50.696 33.5694 41.706 33.5694 29.874ZM41.4574 29.874C41.4574 38.226 46.5614 43.852 53.6374 43.852H54.0434C61.0034 43.852 66.1074 38.226 66.1074 29.874V29.526C66.1074 21.174 61.0614 15.49 53.9854 15.49H53.5794C46.5614 15.49 41.4574 21.174 41.4574 29.526V29.874ZM94.2706 50.696C84.0046 50.696 77.6826 44.78 77.6826 34.688V9.4H85.3386V34.224C85.3386 40.14 88.6446 43.678 94.2706 43.678C99.8966 43.678 103.145 40.14 103.145 34.224V9.4H110.801V34.688C110.801 45.012 104.247 50.696 94.2706 50.696ZM116.95 50V9.4H132.494C141.484 9.4 146.878 14.156 146.878 21.87V22.45C146.878 27.67 144.152 31.672 139.686 33.528L149.662 50H140.672L132.32 35.21H124.548V50H116.95ZM124.374 29.236H131.566C136.728 29.236 139.28 26.742 139.28 22.74V22.16C139.28 18.216 136.67 15.896 131.624 15.896H124.374V29.236ZM177.864 50.638C171.89 50.638 166.032 48.782 161.798 44.896L165.684 38.864C169.048 42.112 173.92 43.678 178.212 43.678C182.62 43.678 185.288 41.88 185.288 38.922C185.288 35.268 181.17 34.108 176.472 32.716C169.976 30.86 162.726 28.424 162.726 20.362C162.726 12.648 169.338 8.704 176.472 8.704C182.272 8.704 187.434 10.502 191.262 13.75L187.26 19.724C184.418 17.056 180.068 15.722 176.53 15.722C172.586 15.722 170.15 17.462 170.15 20.246C170.15 23.552 174.152 24.654 178.908 26.046C185.752 27.902 193.002 30.512 193.002 38.516C193.002 46.346 186.216 50.638 177.864 50.638ZM203.28 50V16.128H191.912V9.4H222.304V16.128H210.878V50H203.28ZM234.822 50V34.166L220.438 9.4H229.254L238.418 26.684H238.766L247.93 9.4H256.688L242.42 34.166V50H234.822ZM258.335 50V9.4H265.933V43.272H282.695V50H258.335ZM286.601 50V9.4H311.657V16.128H294.199V26.278H310.497V32.658H294.199V43.272H312.237V50H286.601Z" fill="currentColor"/>
<path d="M319.488 108.696C316.201 108.696 313.301 108.058 310.788 106.782C308.313 105.506 306.38 103.669 304.988 101.272C303.596 98.8747 302.9 96.052 302.9 92.804C302.9 88.0867 304.137 83.6787 306.612 79.58C309.087 75.4427 312.431 72.156 316.646 69.72C320.861 67.2453 325.423 66.008 330.334 66.008C333.582 66.008 336.443 66.646 338.918 67.922C341.431 69.198 343.365 71.0347 344.718 73.432C346.11 75.8293 346.806 78.652 346.806 81.9C346.806 86.5013 345.53 90.8707 342.978 95.008C340.465 99.1453 337.101 102.471 332.886 104.984C328.671 107.459 324.205 108.696 319.488 108.696ZM313.34 94.486C313.34 99.0873 314.055 102.471 315.486 104.636C316.955 106.801 318.908 107.884 321.344 107.884C324.205 107.884 326.796 106.473 329.116 103.65C331.436 100.789 333.234 97.212 334.51 92.92C335.825 88.628 336.482 84.452 336.482 80.392C336.482 75.752 335.767 72.33 334.336 70.126C332.944 67.922 331.088 66.82 328.768 66.82C325.752 66.82 323.065 68.2507 320.706 71.112C318.386 73.9347 316.569 77.492 315.254 81.784C313.978 86.076 313.34 90.31 313.34 94.486ZM354.8 66.704H370.576V66.994L366.864 68.154L360.658 89.672C360.271 90.9867 360.078 92.2627 360.078 93.5C360.078 96.052 360.967 98.024 362.746 99.416C364.563 100.769 367.193 101.446 370.634 101.446C373.882 101.446 376.376 100.789 378.116 99.474C379.856 98.1207 381.151 96.0133 382.002 93.152L384.496 84.568C385.579 80.8947 386.12 77.782 386.12 75.23C386.12 72.91 385.656 71.1507 384.728 69.952C383.8 68.7147 382.408 67.806 380.552 67.226L379.798 66.994V66.704H393.428V66.994L389.948 68.154L382.698 93.326C381.151 98.7007 378.986 102.625 376.202 105.1C373.457 107.536 369.745 108.754 365.066 108.754C360.465 108.754 356.869 107.691 354.278 105.564C351.726 103.437 350.45 100.344 350.45 96.284C350.45 94.2347 350.837 91.8373 351.61 89.092L357.642 68.154L354.8 66.994V66.704ZM406.435 86.366C409.335 86.366 411.655 85.3993 413.395 83.466C415.174 81.5327 416.063 78.9613 416.063 75.752C416.063 73.2 415.483 71.17 414.323 69.662C413.202 68.1153 411.713 67.342 409.857 67.342H408.059L402.607 86.366H406.435ZM383.525 107.71L387.411 106.55L398.431 68.154L395.241 66.994V66.704H410.611C415.29 66.704 418.867 67.3807 421.341 68.734C423.816 70.0873 425.053 71.982 425.053 74.418C425.053 76.5447 424.164 78.304 422.385 79.696C420.607 81.088 418.055 82.0547 414.729 82.596V82.654L415.773 88.048C416.817 93.384 417.823 97.1927 418.789 99.474C419.795 101.717 420.897 102.838 422.095 102.838C422.637 102.838 423.139 102.645 423.603 102.258C424.106 101.833 424.802 101.079 425.691 99.996H426.213C423.7 103.167 421.612 105.39 419.949 106.666C418.287 107.942 416.663 108.58 415.077 108.58C413.569 108.58 412.332 108 411.365 106.84C410.399 105.641 409.645 103.689 409.103 100.982C408.601 98.2753 408.253 94.5827 408.059 89.904L407.943 87.062H402.375L396.807 106.55L400.055 107.71V108H383.525V107.71Z" fill="currentColor"/>
<path d="M438.388 50.638C426.614 50.638 418.378 41.822 418.378 29.816V29.584C418.378 17.578 426.672 8.762 438.388 8.762C445.406 8.762 451.09 12.184 454.57 17.52L448.77 21.696C446.45 17.81 443.202 15.722 438.736 15.722H438.678C431.08 15.722 426.266 21.348 426.266 29.584V29.874C426.266 37.994 431.138 43.678 438.62 43.678H438.678C443.26 43.678 446.856 41.474 449.002 37.762L454.628 41.88C451.438 47.158 445.522 50.638 438.446 50.638H438.388ZM457.464 50V9.4H473.008C481.998 9.4 487.392 14.156 487.392 21.87V22.45C487.392 27.67 484.666 31.672 480.2 33.528L490.176 50H481.186L472.834 35.21H465.062V50H457.464ZM464.888 29.236H472.08C477.242 29.236 479.794 26.742 479.794 22.74V22.16C479.794 18.216 477.184 15.896 472.138 15.896H464.888V29.236ZM492.979 50V9.4H518.035V16.128H500.577V26.278H516.875V32.658H500.577V43.272H518.615V50H492.979ZM518.636 50L532.962 9.4H542.938L557.206 50H549.086L545.838 40.43H530.004L526.814 50H518.636ZM531.86 34.166H543.982L538.182 16.998H537.718L531.86 34.166ZM563.448 50V16.128H552.08V9.4H582.472V16.128H571.046V50H563.448ZM585.196 50V9.4H592.794V50H585.196ZM597.091 29.874V29.526C597.091 17.578 605.443 8.704 617.101 8.704H617.507C629.165 8.704 637.517 17.52 637.517 29.468V29.932C637.517 41.822 629.165 50.696 617.507 50.696H617.101C605.501 50.696 597.091 41.706 597.091 29.874ZM604.979 29.874C604.979 38.226 610.083 43.852 617.159 43.852H617.565C624.525 43.852 629.629 38.226 629.629 29.874V29.526C629.629 21.174 624.583 15.49 617.507 15.49H617.101C610.083 15.49 604.979 21.174 604.979 29.526V29.874ZM641.784 50V9.4H650.31L667.13 38.226H667.594V9.4H674.96V50H667.188L649.672 19.782H649.208V50H641.784Z" fill="currentColor"/>
</svg>
