<svg width="620" height="114" viewBox="0 0 620 114" fill="none" xmlns="http://www.w3.org/2000/svg">
<path d="M4.872 50V9.4H20.358C28.362 9.4 33.872 13.518 33.872 19.55V19.956C33.872 23.436 32.364 26.22 29 28.366C33.466 30.222 35.902 33.876 35.902 38.342V38.69C35.902 45.534 30.45 50 22.04 50H4.872ZM12.18 26.452H20.184C24.07 26.452 26.39 24.364 26.39 21.232V20.884C26.39 17.868 24.186 15.954 20.3 15.954H12.18V26.452ZM12.18 43.446H21.634C25.752 43.446 28.304 41.358 28.304 38.052V37.762C28.304 34.34 25.694 32.194 21.518 32.194H12.18V43.446ZM35.3996 50L49.7256 9.4H59.7016L73.9696 50H65.8496L62.6016 40.43H46.7676L43.5776 50H35.3996ZM48.6236 34.166H60.7456L54.9456 16.998H54.4816L48.6236 34.166ZM75.79 50V9.4H83.388V43.272H96.67V9.4H104.21V43.272H117.492V9.4H125.09V50H75.79ZM161.732 50.638C149.958 50.638 141.722 41.822 141.722 29.816V29.584C141.722 17.578 150.016 8.762 161.732 8.762C168.75 8.762 174.434 12.184 177.914 17.52L172.114 21.696C169.794 17.81 166.546 15.722 162.08 15.722H162.022C154.424 15.722 149.61 21.348 149.61 29.584V29.874C149.61 37.994 154.482 43.678 161.964 43.678H162.022C166.604 43.678 170.2 41.474 172.346 37.762L177.972 41.88C174.782 47.158 168.866 50.638 161.79 50.638H161.732ZM188.798 50V16.128H177.43V9.4H207.822V16.128H196.396V50H188.798ZM210.546 50V9.4H218.028V38.226H218.492L235.254 9.4H243.722V50H236.182V19.782H235.718L218.318 50H210.546ZM250.246 50.638C248.854 50.638 247.52 50.406 246.36 49.942V43.446C247.23 43.794 248.042 43.968 248.97 43.968C253.552 43.968 254.074 38.864 254.364 24.364L254.77 9.4H281.74V50H274.142V16.128H261.962L261.788 24.48C261.382 43.04 260.048 50.638 250.246 50.638ZM288.487 50V9.4H296.085V23.494H303.799C312.383 23.494 318.067 28.598 318.067 36.486V36.834C318.067 44.722 312.441 50 303.857 50H288.487ZM295.911 43.446H302.813C307.627 43.446 310.469 41.01 310.469 36.66V36.37C310.469 32.136 307.685 29.758 302.755 29.758H295.911V43.446Z" fill="currentColor"/>
<path d="M347.836 66.994L344.066 68.154L333.046 106.55L336.178 107.71V108H319.648V107.71L323.534 106.55L329.392 86.134H315.008L309.15 106.55L312.34 107.71V108H295.81V107.71L299.638 106.55L310.658 68.154L307.468 66.994V66.704H324.056V66.994L320.17 68.154L315.182 85.438H329.566L334.554 68.154L331.364 66.994V66.704H347.836V66.994ZM367.992 65.312H368.224L374.314 106.55L376.518 107.71V108H359.988V107.71L364.338 106.55L362.308 91.992H350.302C346.938 97.2507 345.256 101.098 345.256 103.534C345.256 104.655 345.565 105.525 346.184 106.144C346.841 106.724 347.789 107.149 349.026 107.42L350.128 107.71V108H336.266V107.71L339.166 106.55L367.992 65.312ZM362.192 91.296L360.278 77.434L352.622 88.57L350.766 91.296H362.192ZM376.693 107.71L380.521 106.55L391.541 68.154L388.351 66.994V66.704H404.881V66.994L400.995 68.154L389.743 107.304H402.619L413.871 68.154L410.681 66.994V66.704H427.211V66.994L423.325 68.154L412.073 107.304H425.007L436.259 68.154L433.011 66.994V66.704H449.541V66.994L445.713 68.154L434.693 106.55L437.883 107.71V108H376.693V107.71Z" fill="currentColor"/>
<path d="M432.072 50V9.4H447.558C455.562 9.4 461.072 13.518 461.072 19.55V19.956C461.072 23.436 459.564 26.22 456.2 28.366C460.666 30.222 463.102 33.876 463.102 38.342V38.69C463.102 45.534 457.65 50 449.24 50H432.072ZM439.38 26.452H447.384C451.27 26.452 453.59 24.364 453.59 21.232V20.884C453.59 17.868 451.386 15.954 447.5 15.954H439.38V26.452ZM439.38 43.446H448.834C452.952 43.446 455.504 41.358 455.504 38.052V37.762C455.504 34.34 452.894 32.194 448.718 32.194H439.38V43.446ZM467.588 50V9.4H475.07V38.226H475.534L492.296 9.4H500.764V50H493.224V19.782H492.76L475.36 50H467.588ZM515.002 50V16.128H503.634V9.4H534.026V16.128H522.6V50H515.002ZM536.75 50V9.4H552.236C560.24 9.4 565.75 13.518 565.75 19.55V19.956C565.75 23.436 564.242 26.22 560.878 28.366C565.344 30.222 567.78 33.876 567.78 38.342V38.69C567.78 45.534 562.328 50 553.918 50H536.75ZM544.058 26.452H552.062C555.948 26.452 558.268 24.364 558.268 21.232V20.884C558.268 17.868 556.064 15.954 552.178 15.954H544.058V26.452ZM544.058 43.446H553.512C557.63 43.446 560.182 41.358 560.182 38.052V37.762C560.182 34.34 557.572 32.194 553.396 32.194H544.058V43.446ZM572.266 50V9.4H579.864V50H572.266ZM586.654 50V9.4H601.27C610.086 9.4 616.06 14.678 616.06 22.74V23.088C616.06 31.266 610.144 36.602 601.328 36.602H594.252V50H586.654ZM594.078 30.338H600.748C605.62 30.338 608.346 27.496 608.346 23.204V22.856C608.346 18.68 605.678 16.07 600.922 16.07H594.078V30.338Z" fill="currentColor"/>
</svg>
