<svg width="24" height="24" viewBox="0 0 24 24" fill="none" xmlns="http://www.w3.org/2000/svg">
<path d="M11.999 2.24683C6.62293 2.24683 2.24902 6.62073 2.24902 11.9968C2.24902 17.3729 6.62293 21.7468 11.999 21.7468C17.3751 21.7468 21.749 17.3729 21.749 11.9968C21.749 6.62073 17.3751 2.24683 11.999 2.24683ZM17.0732 8.72917L10.7732 16.2292C10.7041 16.3115 10.6181 16.378 10.5211 16.4242C10.424 16.4703 10.3182 16.4951 10.2107 16.4968H10.1981C10.093 16.4968 9.98902 16.4747 9.89301 16.4319C9.79699 16.3891 9.71104 16.3265 9.64074 16.2484L6.94074 13.2484C6.87217 13.1757 6.81883 13.09 6.78385 12.9963C6.74888 12.9027 6.73297 12.803 6.73707 12.7031C6.74117 12.6033 6.76519 12.5052 6.80773 12.4148C6.85026 12.3243 6.91044 12.2433 6.98474 12.1764C7.05904 12.1095 7.14596 12.0582 7.24038 12.0254C7.33481 11.9926 7.43483 11.979 7.53458 11.9854C7.63434 11.9918 7.7318 12.0181 7.82124 12.0628C7.91069 12.1074 7.99031 12.1694 8.05543 12.2453L10.1784 14.604L15.9248 7.76448C16.0537 7.61546 16.2361 7.52314 16.4325 7.50749C16.6289 7.49184 16.8236 7.55411 16.9744 7.68084C17.1253 7.80757 17.2203 7.98859 17.2387 8.18475C17.2572 8.38092 17.1978 8.57648 17.0732 8.72917V8.72917Z" fill="#10322C"/>
</svg>
