<svg width="24" height="24" viewBox="0 0 24 24" fill="none" xmlns="http://www.w3.org/2000/svg">
<path d="M12 2.24683C6.62391 2.24683 2.25 6.62073 2.25 11.9968C2.25 17.3729 6.62391 21.7468 12 21.7468C17.3761 21.7468 21.75 17.3729 21.75 11.9968C21.75 6.62073 17.3761 2.24683 12 2.24683ZM15.5302 14.4667C15.6027 14.5356 15.6608 14.6184 15.7008 14.7101C15.7409 14.8019 15.7622 14.9007 15.7635 15.0008C15.7648 15.1009 15.746 15.2002 15.7083 15.293C15.6706 15.3857 15.6147 15.4699 15.5439 15.5407C15.4731 15.6115 15.3889 15.6674 15.2961 15.7051C15.2034 15.7429 15.1041 15.7616 15.004 15.7603C14.9039 15.7591 14.805 15.7378 14.7133 15.6977C14.6216 15.6576 14.5388 15.5996 14.4698 15.527L12 13.0576L9.53015 15.527C9.38836 15.6617 9.19955 15.7357 9.00398 15.7332C8.8084 15.7307 8.62155 15.6519 8.48325 15.5136C8.34495 15.3753 8.26614 15.1884 8.26364 14.9929C8.26113 14.7973 8.33513 14.6085 8.46984 14.4667L10.9392 11.9968L8.46984 9.52698C8.33513 9.38519 8.26113 9.19637 8.26364 9.0008C8.26614 8.80523 8.34495 8.61837 8.48325 8.48007C8.62155 8.34177 8.8084 8.26297 9.00398 8.26047C9.19955 8.25796 9.38836 8.33196 9.53015 8.46667L12 10.936L14.4698 8.46667C14.6116 8.33196 14.8005 8.25796 14.996 8.26047C15.1916 8.26297 15.3784 8.34177 15.5168 8.48007C15.6551 8.61837 15.7339 8.80523 15.7364 9.0008C15.7389 9.19637 15.6649 9.38519 15.5302 9.52698L13.0608 11.9968L15.5302 14.4667Z" fill="#BC0000"/>
</svg>
