<svg width="35" height="36" viewBox="0 0 35 36" fill="none" xmlns="http://www.w3.org/2000/svg">
<path d="M29.8603 24.6421C26.7567 21.5384 26.7567 15.4462 29.8603 12.3426C29.9784 12.2246 30.0199 12.0064 29.9869 11.8424C29.6467 10.14 28.6943 8.62867 27.3055 7.58662C27.1694 7.48512 26.9913 7.45862 26.8322 7.51762C25.0768 8.16449 23.6375 8.15492 22.556 7.49112C20.8095 6.41904 20.5014 3.95224 20.4984 3.92722C20.4769 3.74522 20.3573 3.58854 20.1872 3.52047C18.4543 2.82659 16.5458 2.82659 14.8128 3.52047C14.6428 3.58847 14.5232 3.74497 14.5017 3.92722C14.4987 3.95222 14.1905 6.41904 12.4441 7.49112C11.3625 8.15499 9.92373 8.16394 8.16781 7.51762C8.00823 7.45862 7.83066 7.48512 7.69453 7.58662C6.30577 8.62867 5.3533 10.14 5.00314 11.8904C4.97014 12.0544 5.02164 12.2241 5.13974 12.3426C8.24338 15.4462 8.24338 21.5384 5.13974 24.6421C5.02166 24.7601 4.98016 24.9782 5.01316 25.1429C5.35336 26.8447 6.30583 28.3561 7.69459 29.3981C7.82766 29.4981 8.00225 29.5241 8.15983 29.4701C8.42646 29.3776 14.7233 27.262 17.04 32.6958C17.1185 32.8803 17.2996 33 17.5002 33C17.7003 33 17.8814 32.8805 17.96 32.6958C20.2767 27.2614 26.573 29.3771 26.8401 29.4701C26.9973 29.5241 27.1718 29.4981 27.3054 29.3981C28.6941 28.3561 29.6466 26.8448 29.9968 25.0944C30.0299 24.9301 29.9785 24.7606 29.8603 24.6421ZM7.32103 11.8023C7.21245 11.6613 7.18748 11.4727 7.255 11.308C7.46565 10.7948 7.7573 10.323 8.12247 9.90482C8.24552 9.76382 8.43564 9.70332 8.61926 9.74882C9.01697 9.84682 9.40916 9.91682 9.78389 9.95632C10.0585 9.98532 10.2576 10.2314 10.2286 10.5066C10.2001 10.7808 9.95695 10.9764 9.67883 10.9514C9.35769 10.9179 9.02652 10.8639 8.69031 10.7919C8.53823 10.9934 8.40616 11.2086 8.29459 11.4352C8.49017 11.7073 8.6753 11.992 8.84637 12.2847C8.98542 12.5232 8.90487 12.8295 8.66627 12.9691C8.58724 13.0151 8.50019 13.0371 8.41465 13.0371C8.2426 13.0371 8.07498 12.9486 7.98194 12.7888C7.78074 12.444 7.55811 12.112 7.32103 11.8023ZM9.82283 27.0823C9.42512 27.1283 9.02589 27.1938 8.63568 27.2768C8.60068 27.2843 8.56616 27.2868 8.53163 27.2868C8.39058 27.2868 8.25451 27.2273 8.15843 27.1198C7.77626 26.6921 7.47258 26.2064 7.25497 25.6756C7.18744 25.5106 7.21247 25.3224 7.32099 25.1813C7.55812 24.8717 7.78072 24.5395 7.98186 24.1953C8.12091 23.9558 8.42759 23.8756 8.66625 24.0153C8.90485 24.1543 8.9854 24.4606 8.84635 24.6992C8.67527 24.9923 8.49015 25.277 8.29458 25.5486C8.41465 25.7924 8.55821 26.0229 8.72482 26.2375C9.05001 26.176 9.37966 26.1255 9.70737 26.088C9.98402 26.055 10.2307 26.2525 10.2621 26.5272C10.2941 26.8014 10.097 27.0509 9.82283 27.0823ZM10.3891 19.8756C10.3075 20.649 10.1575 21.4119 9.94237 22.1427C9.87782 22.3602 9.67873 22.5014 9.46264 22.5014C9.41562 22.5014 9.36809 22.4939 9.32059 22.4814C9.05596 22.4034 8.90436 22.1252 8.98245 21.8601C9.18055 21.1877 9.31913 20.4849 9.39364 19.7715C9.42266 19.4968 9.66431 19.2987 9.94395 19.3262C10.2185 19.3547 10.4176 19.6004 10.3891 19.8756ZM9.94389 17.6589C9.92589 17.6609 9.90837 17.6614 9.89084 17.6614C9.63823 17.6614 9.42108 17.4704 9.39359 17.2132C9.31856 16.4993 9.17996 15.7965 8.98187 15.1246C8.90384 14.8594 9.05539 14.5813 9.32054 14.5037C9.58517 14.4242 9.86381 14.5767 9.94184 14.8419C10.1569 15.5718 10.3075 16.3347 10.3891 17.1086C10.4176 17.3833 10.2185 17.6299 9.94389 17.6589ZM14.7989 27.1329C14.7294 27.3436 14.5338 27.4765 14.3237 27.4765C14.2721 27.4765 14.2191 27.469 14.1671 27.451C13.5608 27.2515 12.9089 27.1163 12.2295 27.0503C11.9544 27.0238 11.7533 26.7792 11.7798 26.5041C11.8063 26.2294 12.0515 26.0258 12.3261 26.0548C13.0795 26.1278 13.8038 26.2781 14.4802 26.5011C14.7429 26.5876 14.8855 26.8702 14.7989 27.1329ZM14.9125 9.38857C14.2616 9.96937 13.5168 10.3991 12.6994 10.6668C12.6478 10.6843 12.5953 10.6918 12.5438 10.6918C12.3331 10.6918 12.1375 10.5578 12.0685 10.3466C11.9824 10.0845 12.126 9.80179 12.3886 9.71572C13.074 9.49147 13.6988 9.13094 14.2466 8.64267C14.4522 8.45817 14.7689 8.47617 14.953 8.68267C15.1366 8.88867 15.1186 9.20449 14.9125 9.38857ZM18.741 28.5181C18.4278 28.7461 18.1302 29.0029 17.855 29.28C17.7614 29.3745 17.6334 29.428 17.5003 29.428C17.3667 29.428 17.2387 29.3745 17.1451 29.28C16.87 29.0029 16.5723 28.7462 16.2591 28.5181C16.036 28.3551 15.9874 28.0424 16.15 27.8187C16.3131 27.5962 16.6263 27.547 16.8494 27.7097C17.0736 27.8737 17.2916 28.0504 17.5003 28.2375C17.7089 28.0505 17.9265 27.8738 18.1506 27.7097C18.3737 27.5472 18.6869 27.5962 18.85 27.8187C19.0126 28.0425 18.9641 28.355 18.741 28.5181ZM18.9686 7.19039C18.7195 7.30889 18.4208 7.20289 18.3028 6.95214C18.1607 6.65252 18.0341 6.34234 17.925 6.02517C17.6439 5.99767 17.3563 5.99767 17.0751 6.02517C16.9661 6.34234 16.8395 6.65299 16.6974 6.95214C16.6119 7.13289 16.4322 7.23829 16.2452 7.23829C16.1731 7.23829 16.1001 7.22329 16.0311 7.19029C15.7814 7.07179 15.6749 6.77357 15.7929 6.52397C15.96 6.17227 16.1031 5.80259 16.2181 5.42587C16.2732 5.24537 16.4257 5.11122 16.6119 5.07914C17.1926 4.97914 17.8065 4.97914 18.3883 5.07914C18.5744 5.11114 18.727 5.24514 18.782 5.42587C18.8971 5.80259 19.0401 6.17174 19.2068 6.52397C19.3248 6.77347 19.2187 7.07232 18.9686 7.19039ZM20.0487 8.68419C20.2323 8.47769 20.548 8.45969 20.7551 8.64369C21.3029 9.13197 21.9282 9.49262 22.6135 9.71622C22.8762 9.80222 23.0197 10.0844 22.9337 10.3471C22.8652 10.5581 22.6691 10.6923 22.4584 10.6923C22.4069 10.6923 22.3549 10.6848 22.3034 10.6673C21.4854 10.4001 20.741 9.97039 20.0892 9.39007C19.8831 9.20607 19.8651 8.89032 20.0487 8.68419ZM22.7726 27.0499C22.0928 27.1159 21.4405 27.2509 20.8346 27.4506C20.7826 27.4681 20.7296 27.4761 20.6781 27.4761C20.468 27.4761 20.2723 27.3431 20.2028 27.1324C20.1163 26.8698 20.2588 26.5871 20.5215 26.5005C21.1978 26.2775 21.9222 26.1273 22.6756 26.0543C22.9518 26.0263 23.1954 26.2288 23.2219 26.5035C23.2489 26.7787 23.0472 27.0233 22.7726 27.0499ZM25.2164 9.95634C25.5916 9.91684 25.9833 9.84684 26.3805 9.74834C26.5631 9.70334 26.7542 9.76334 26.8778 9.90484C27.2429 10.3225 27.5346 10.7948 27.7452 11.3081C27.8128 11.4726 27.7877 11.6613 27.6792 11.8023C27.4421 12.112 27.2195 12.4442 27.0184 12.7889C26.9253 12.9484 26.7577 13.0371 26.5857 13.0371C26.5001 13.0371 26.4131 13.0146 26.334 12.9691C26.0954 12.8296 26.0149 12.5234 26.1539 12.2847C26.325 11.9921 26.5101 11.7075 26.7057 11.4353C26.5942 11.2085 26.4621 10.9935 26.3095 10.7919C25.9744 10.8639 25.6432 10.9179 25.3215 10.9514C25.0439 10.9764 24.8002 10.7809 24.7712 10.5067C24.7427 10.2316 24.9418 9.98537 25.2164 9.95634ZM24.6111 17.1096C24.6927 16.3357 24.8427 15.5728 25.0578 14.8424C25.1364 14.5772 25.416 14.4262 25.6797 14.5042C25.9443 14.5817 26.0959 14.8599 26.0179 15.125C25.8198 15.7974 25.6812 16.5002 25.6067 17.2137C25.5792 17.4708 25.362 17.6619 25.1094 17.6619C25.0919 17.6619 25.0744 17.6609 25.0564 17.6594C24.7817 17.6304 24.5826 17.3842 24.6111 17.1096ZM25.0563 19.3258C25.333 19.2978 25.5776 19.4963 25.6066 19.771C25.6817 20.4849 25.8202 21.1878 26.0183 21.8596C26.0964 22.1248 25.9448 22.4029 25.6797 22.481C25.6326 22.496 25.5851 22.501 25.5381 22.501C25.322 22.501 25.1224 22.36 25.0584 22.1423C24.8433 21.4119 24.6927 20.6495 24.6111 19.8756C24.5826 19.6004 24.7817 19.3548 25.0563 19.3258ZM27.7452 25.6766C27.5276 26.2074 27.2239 26.6932 26.8418 27.1209C26.7457 27.2284 26.6097 27.2879 26.4686 27.2879C26.434 27.2879 26.3995 27.2829 26.3645 27.2779C25.9743 27.1949 25.5751 27.1294 25.1774 27.0834C24.9032 27.0519 24.7061 26.8032 24.7382 26.5291C24.7702 26.2545 25.0198 26.0558 25.2929 26.0899C25.6206 26.1274 25.9503 26.1779 26.2755 26.2394C26.4421 26.0249 26.5856 25.7942 26.7057 25.5506C26.5101 25.2789 26.325 24.9943 26.1539 24.7011C26.0149 24.4626 26.0954 24.1563 26.334 24.0172C26.5726 23.8782 26.8788 23.9582 27.0184 24.1972C27.2195 24.5414 27.4422 24.8736 27.6793 25.1832C27.7877 25.3242 27.8128 25.5115 27.7452 25.6766Z" fill="black"/>
</svg>
