<svg width="30" height="30" viewBox="0 0 30 30" fill="none" xmlns="http://www.w3.org/2000/svg">
<g clip-path="url(#clip0_1_231)">
<path d="M25.616 19.6252C25.3102 19.32 24.9614 18.8644 24.5644 18.3569C24.1789 17.8641 24.6419 17.4535 24.6419 17.4535C27.3302 14.0765 27.1146 9.13209 23.9914 6.00888C20.8805 2.89797 15.9627 2.67173 12.5868 5.32665C12.5868 5.32665 12.1054 5.78713 11.4537 5.26728C10.9311 4.85044 10.4966 4.47296 10.1769 4.2351C9.72783 3.90106 10.2712 3.36441 10.2712 3.36441C14.8267 -0.624991 21.7598 -0.447378 26.1037 3.89657C30.4323 8.22509 30.6239 15.1244 26.6781 19.6806C26.6781 19.6806 26.2394 20.2472 25.616 19.6252Z" fill="black"/>
<path d="M15.4029 17.432L12.4743 14.5034C12.2146 14.2753 12.0495 14.407 11.9434 14.4867C10.8729 15.2908 7.60471 17.6262 7.60471 17.6262C6.57702 18.3699 5.03953 19.8356 4.24755 20.8267L0.886965 25.0329C0.320342 25.7419 0.384005 26.8831 1.02562 27.5249L2.47513 28.9744C3.11684 29.6161 4.25809 29.6796 4.96708 29.113L9.17335 25.7523C10.1647 24.9603 11.6302 23.4228 12.3738 22.3952C12.3738 22.3952 14.6536 19.1118 15.4436 18.0391C15.5337 17.9167 15.6876 17.7218 15.4029 17.432Z" fill="black"/>
<path d="M16.2369 15.891L14.1439 13.8053C13.7592 13.4743 14.1789 13.0413 14.1789 13.0413C15.5585 11.2844 14.8868 9.33142 13.7003 7.6748C13.2792 7.08699 13.588 6.77492 13.588 6.77492C16.2769 4.59162 20.2468 4.74961 22.7486 7.25142C25.2184 9.72121 25.4039 13.622 23.3078 16.3081C23.3078 16.3081 23.1032 16.8035 22.4041 16.3573C20.6883 15.2626 18.801 14.4641 17.0523 15.7508C17.0523 15.7508 16.5176 16.1961 16.2369 15.891Z" fill="black"/>
</g>
<defs>
<clipPath id="clip0_1_231">
<rect width="29" height="29" fill="white" transform="translate(0.5 0.5)"/>
</clipPath>
</defs>
</svg>
