<svg width="1349" height="147" viewBox="0 0 1349 147" fill="none" xmlns="http://www.w3.org/2000/svg">
<path d="M10.6302 137.174L103.475 0.512414H104.054L121.62 137.174L129.148 141.035V142H80.8914V141.035L94.9822 137.174L88.9985 87.3738H47.498C21.4396 128.295 25.6861 136.595 40.7421 140.263L44.0235 141.035V142H0.78587V141.035L10.6302 137.174ZM49.0422 85.0575H88.8054L82.8216 34.6779L54.2539 77.1435C52.3236 79.8458 50.5864 82.5482 49.0422 85.0575ZM124.254 142V141.035L137.187 137.174L172.704 13.8312L163.052 5.33806V4.56595H199.148L247.018 106.29L256.477 73.0899C271.34 20.9731 264.584 9.19856 248.563 5.91712L246.246 5.53108V4.56595H290.256V5.53108L277.323 9.39158L237.946 146.44H237.367L174.634 15.3754L164.21 51.6641C144.136 121.539 152.243 135.051 173.862 140.456L176.178 141.035V142H124.254ZM327.198 70.0015C346.886 70.0015 360.205 57.6479 360.205 35.8361C360.205 17.4986 350.94 6.68923 337.042 6.68923H327.391L309.246 70.0015H327.198ZM251.918 142V141.035L265.044 137.174L301.718 9.39158L290.909 5.53108V4.56595H338.779C367.733 4.56595 384.333 14.9893 384.333 33.5197C384.333 50.1199 371.401 60.3503 350.554 65.3689V65.562L352.87 79.2668C358.661 113.432 365.996 127.716 372.945 127.716C376.612 127.716 380.473 124.242 387.036 115.363H388.773C373.91 136.016 364.838 144.123 355.379 144.123C342.833 144.123 335.884 130.225 331.444 82.5482L330.479 72.3178H308.474L289.944 137.174L300.753 141.035V142H251.918ZM412.716 137.174L423.525 141.035V142H374.69V141.035L387.622 137.174L424.297 9.39158L413.488 5.53108V4.56595H462.516V5.53108L449.39 9.39158L412.716 137.174ZM498.334 142V4.13541H539.299C581.25 4.13541 609.217 30.3297 609.217 69.7196V73.6586C609.217 114.624 581.25 142 539.299 142H498.334ZM519.014 123.093H539.496C569.433 123.093 587.355 104.186 587.355 73.2647V69.5226C587.355 40.768 569.433 23.0426 539.496 23.0426H519.014V123.093ZM629.752 142V4.13541H708.728V23.0426H650.628V62.6294H704.789V80.9457H650.628V123.093H710.698V142H629.752ZM836.161 143.773C797.756 143.773 772.349 116.2 772.349 74.8402V71.0982C772.349 30.3297 798.74 2.16592 835.57 2.16592H837.342C858.613 2.16592 878.308 13.392 888.746 31.7083L872.006 42.9344C864.915 29.7388 853.295 21.467 837.342 21.467H835.767C810.754 21.467 794.014 40.965 794.014 71.0982V75.0372C794.014 104.974 810.754 124.472 836.161 124.472H838.13C853.689 124.472 865.703 116.003 872.99 103.004L888.943 114.427C878.505 132.94 859.598 143.773 837.736 143.773H836.161ZM894.727 75.0372V71.0982C894.727 29.3449 921.512 1.96897 959.129 1.96897H961.296C998.716 1.96897 1025.7 29.3449 1025.7 71.0982V75.0372C1025.7 116.79 998.716 144.166 961.296 144.166H959.129C921.709 144.166 894.727 116.594 894.727 75.0372ZM916.391 75.0372C916.391 105.367 934.708 124.865 959.326 124.865H961.099C985.521 124.865 1004.03 105.367 1004.03 75.0372V71.0982C1004.03 40.768 985.521 21.27 961.099 21.27H959.326C934.708 21.27 916.391 40.768 916.391 71.0982V75.0372ZM1045.98 142V4.13541H1066.86V123.093H1121.22V142H1045.98ZM1140.28 142V4.13541H1161.16V123.093H1215.52V142H1140.28ZM1217.62 75.0372V71.0982C1217.62 29.3449 1244.41 1.96897 1282.03 1.96897H1284.19C1321.61 1.96897 1348.6 29.3449 1348.6 71.0982V75.0372C1348.6 116.79 1321.61 144.166 1284.19 144.166H1282.03C1244.61 144.166 1217.62 116.594 1217.62 75.0372ZM1239.29 75.0372C1239.29 105.367 1257.6 124.865 1282.22 124.865H1284C1308.42 124.865 1326.93 105.367 1326.93 75.0372V71.0982C1326.93 40.768 1308.42 21.27 1284 21.27H1282.22C1257.6 21.27 1239.29 40.768 1239.29 71.0982V75.0372Z" fill="currentColor"/>
</svg>
