<svg width="114" height="114" viewBox="0 0 114 114" fill="none" xmlns="http://www.w3.org/2000/svg">
<path d="M47.5 78.375V35.625L76 57L47.5 78.375ZM57 9.5C50.7622 9.5 44.5855 10.7286 38.8225 13.1157C33.0596 15.5028 27.8232 19.0016 23.4124 23.4124C14.5044 32.3204 9.5 44.4022 9.5 57C9.5 69.5978 14.5044 81.6796 23.4124 90.5876C27.8232 94.9984 33.0596 98.4972 38.8225 100.884C44.5855 103.271 50.7622 104.5 57 104.5C69.5978 104.5 81.6796 99.4956 90.5876 90.5876C99.4956 81.6796 104.5 69.5978 104.5 57C104.5 50.7622 103.271 44.5855 100.884 38.8225C98.4972 33.0596 94.9984 27.8232 90.5876 23.4124C86.1768 19.0016 80.9404 15.5028 75.1775 13.1157C69.4145 10.7286 63.2378 9.5 57 9.5V9.5Z" fill="currentColor"/>
</svg>
