<svg width="48" height="48" viewBox="0 0 48 48" fill="none" xmlns="http://www.w3.org/2000/svg">
<path d="M14.017 31.71C12.4477 31.71 11.1637 31.389 10.165 30.747C9.16633 30.105 8.346 29.2847 7.704 28.286C6.99067 27.0733 6.49133 25.825 6.206 24.541C5.992 23.1857 5.885 22.08 5.885 21.224C5.885 17.7287 6.77667 14.5543 8.56 11.701C10.3433 8.84766 13.1253 6.52933 16.906 4.74599L17.869 6.67199C15.6577 7.59933 13.7317 9.06166 12.091 11.059C10.5217 13.0563 9.737 15.0893 9.737 17.158C9.737 18.014 9.844 18.763 10.058 19.405C11.1993 18.4777 12.519 18.014 14.017 18.014C15.8717 18.014 17.4767 18.6203 18.832 19.833C20.1873 21.0457 20.865 22.722 20.865 24.862C20.865 26.8593 20.1873 28.5 18.832 29.784C17.4767 31.068 15.8717 31.71 14.017 31.71ZM32.207 31.71C30.6377 31.71 29.3537 31.389 28.355 30.747C27.3563 30.105 26.536 29.2847 25.894 28.286C25.1807 27.0733 24.6813 25.825 24.396 24.541C24.182 23.1857 24.075 22.08 24.075 21.224C24.075 17.7287 24.9667 14.5543 26.75 11.701C28.5333 8.84766 31.3153 6.52933 35.096 4.74599L36.059 6.67199C33.8477 7.59933 31.9217 9.06166 30.281 11.059C28.7117 13.0563 27.927 15.0893 27.927 17.158C27.927 18.014 28.034 18.763 28.248 19.405C29.3893 18.4777 30.709 18.014 32.207 18.014C34.0617 18.014 35.6667 18.6203 37.022 19.833C38.3773 21.0457 39.055 22.722 39.055 24.862C39.055 26.8593 38.3773 28.5 37.022 29.784C35.6667 31.068 34.0617 31.71 32.207 31.71Z" fill="currentColor"/>
</svg>
