<svg width="32" height="32" viewBox="0 0 32 32" fill="none" xmlns="http://www.w3.org/2000/svg">
<path d="M18.6197 24.092C16.7796 24.0937 14.9706 23.6182 13.3691 22.712L8.92641 27.1546C8.38519 27.6958 7.65115 27.9999 6.88575 27.9999C6.12035 27.9999 5.3863 27.6958 4.84508 27.1546C4.30386 26.6134 3.99981 25.8794 3.99981 25.114C3.99981 24.3486 4.30386 23.6145 4.84508 23.0733L9.28775 18.6306C8.01729 16.3751 7.60684 13.7357 8.13237 11.2008C8.6579 8.66599 10.0838 6.40731 12.1463 4.84274C14.2087 3.27817 16.7681 2.51363 19.3508 2.69059C21.9335 2.86755 24.3646 3.97404 26.1944 5.80529C27.6926 7.3034 28.7128 9.21212 29.1262 11.2901C29.5395 13.368 29.3274 15.5219 28.5166 17.4793C27.7058 19.4367 26.3328 21.1097 24.5712 22.2868C22.8095 23.4638 20.7384 24.092 18.6197 24.092ZM24.3091 7.69063C22.9929 6.37505 21.2613 5.55651 19.4093 5.37447C17.5573 5.19244 15.6994 5.65817 14.1523 6.69231C12.6051 7.72646 11.4644 9.26504 10.9245 11.0459C10.3845 12.8268 10.4787 14.7398 11.1911 16.459C11.9034 18.1782 13.1898 19.5973 14.8311 20.4744C16.4723 21.3515 18.367 21.6324 20.1921 21.2693C22.0173 20.9061 23.6601 19.9214 24.8406 18.4828C26.0212 17.0443 26.6664 15.2409 26.6664 13.38C26.6696 12.3228 26.4629 11.2755 26.0583 10.2989C25.6536 9.32226 25.059 8.4357 24.3091 7.69063Z" fill="black"/>
</svg>
