<svg width="33" height="32" viewBox="0 0 33 32" fill="none" xmlns="http://www.w3.org/2000/svg">
<g clip-path="url(#clip0_1_242)">
<path d="M32.352 8.32078C32.1454 8.10328 31.8037 8.09297 31.5851 8.29853C29.7285 10.0515 28.1676 10.2348 26.5806 8.86909L27.1159 8.4254C28.5489 6.99304 28.5489 4.66194 27.1159 3.22896C26.4249 2.53796 25.5018 2.15672 24.518 2.15672C23.5341 2.15672 22.611 2.53802 21.8853 3.26696L21.4634 3.77733L20.9151 3.22902C19.4826 1.79609 17.1505 1.79716 15.7186 3.22902C14.2862 4.66194 14.2862 6.99304 15.7186 8.42547L16.7572 9.46358L9.10942 18.705L7.27456 16.8696C5.84164 15.4367 3.50997 15.4378 2.07811 16.8696C0.645689 18.3026 0.645689 20.6337 2.07811 22.0661L4.40321 24.3912L0.624626 28.9568C0.446191 29.1727 0.460815 29.4883 0.659313 29.6863C0.764562 29.7921 0.903374 29.8453 1.04275 29.8453C1.16481 29.8453 1.28787 29.8041 1.38824 29.7211L5.95389 25.9419L9.16523 29.1532C9.27154 29.2589 9.41035 29.3121 9.54866 29.3121C9.68754 29.3121 9.82635 29.259 9.9321 29.1532C10.1442 28.9411 10.1442 28.5978 9.9321 28.3863L6.79344 25.2471L13.6099 19.6048L15.2761 21.271C15.9828 21.9776 16.8772 22.2808 17.7666 22.2808C18.7668 22.2808 19.7609 21.8963 20.472 21.271C21.1635 20.5795 21.5448 19.6564 21.5448 18.6725C21.5448 17.6886 21.1635 16.7661 20.472 16.0746L19.2961 14.8982L25.7373 9.56721C26.6848 10.4253 27.6644 10.8591 28.6732 10.8591C29.8572 10.8591 31.0791 10.2685 32.3298 9.08721C32.5478 8.88159 32.5576 8.53884 32.352 8.32078ZM5.09808 23.5521L2.8451 21.2992C1.8363 20.2898 1.8363 18.6464 2.8451 17.6366C3.85391 16.6272 5.49783 16.6267 6.50769 17.6366L8.41467 19.544L5.09808 23.5521ZM19.7051 16.8414C20.1916 17.3284 20.4601 17.9782 20.4601 18.6724C20.4601 19.3667 20.1916 20.017 19.7306 20.4802C18.7761 21.3176 17.0676 21.528 16.0431 20.504L14.4496 18.91L18.4571 15.5929L19.7051 16.8414ZM17.4516 8.62453L16.4857 7.6586C15.4763 6.64923 15.4763 5.00588 16.4857 3.99651C17.495 2.98715 19.1384 2.98608 20.1482 3.99651L20.7687 4.61644L17.4516 8.62453ZM24.9015 6.21099L23.1296 7.98291C23.0238 8.08866 22.885 8.14184 22.7462 8.14184C22.6078 8.14184 22.469 8.08872 22.3627 7.98291C22.1512 7.77085 22.1512 7.42754 22.3627 7.21598L24.1346 5.44406C24.3467 5.232 24.6895 5.232 24.9016 5.44406C25.1136 5.65612 25.1136 5.99893 24.9015 6.21099Z" fill="black"/>
</g>
<defs>
<clipPath id="clip0_1_242">
<rect width="32" height="32" fill="white" transform="translate(0.5)"/>
</clipPath>
</defs>
</svg>
