<svg width="128" height="128" viewBox="0 0 128 128" fill="none" xmlns="http://www.w3.org/2000/svg">
<rect width="128" height="128" rx="16" fill="white"/>
<path d="M10.5346 81.765L35.7281 45.7235H35.9309L41.2535 81.765L43.1797 82.7788V83.0323H28.7327V82.7788L32.5346 81.765L30.7604 69.0415H20.2673C13.8802 79.0277 15.2489 81.6636 19.1521 82.5254L20.1152 82.7788V83.0323H8V82.7788L10.5346 81.765ZM20.6728 68.4332H30.659L28.9862 56.318L22.2949 66.0507L20.6728 68.4332Z" fill="black"/>
<path d="M43.3326 83.0323V82.7788L46.7289 81.765L56.3603 48.2074L53.5216 47.1936V46.9401H67.6137C77.9548 46.9401 85.305 52.1106 85.305 61.9447C85.305 74.1106 73.7981 83.0323 60.8211 83.0323H43.3326ZM54.7381 82.4747H59.6552C69.6921 82.4747 76.434 74.212 76.434 61.4378C76.434 51.4516 72.1759 47.4977 66.752 47.4977H64.775L54.7381 82.4747Z" fill="black"/>
<path d="M87.8617 69.7512C87.8617 56.977 99.7235 46.3318 112.194 46.3318C115.134 46.3318 117.465 46.8894 118.783 47.1936L119.747 44H120V56.7742H119.696C118.378 51.7051 115.488 46.8894 111.484 46.8894C102.816 46.8894 97.2903 59.6129 97.2903 71.1705C97.2903 79.3318 100.687 83.0323 104.742 83.0323C109.659 83.0323 114.677 74.9217 117.871 69.4977H118.226L113.765 82.1198C112.244 82.5254 107.885 83.6406 103.069 83.6406C93.6405 83.6406 87.8617 78.4701 87.8617 69.7512Z" fill="black"/>
</svg>
